<svg width="130" height="34" viewBox="0 0 130 34" fill="none" xmlns="http://www.w3.org/2000/svg">
<path fill-rule="evenodd" clip-rule="evenodd" d="M17.1575 1.25343e-07C21.707 1.25343e-07 26.0702 1.79111 29.287 4.97924C32.5039 8.16737 34.3108 12.4913 34.3102 16.9998C34.3102 23.8757 30.1304 30.0746 23.7198 32.7057C17.3092 35.3368 9.93041 33.882 5.02431 29.0197C0.118217 24.1573 -1.34897 16.8451 1.30693 10.4928C3.96284 4.1405 10.2188 -0.000831886 17.1575 1.25343e-07ZM9.73537 6.86944C9.00889 6.70569 8.25234 6.72764 7.53677 6.93322C7.56065 6.9579 7.57674 6.97436 7.58686 6.98465L7.60113 6.99905L7.80874 7.02991C9.04999 7.141 10.2379 7.58243 11.2468 8.30751C11.6534 8.58488 12.0298 8.90343 12.3699 9.258C12.6834 9.60364 13.0239 10.0295 13.1277 10.4389C13.2315 10.8483 13.4641 11.1816 13.5741 11.5643C13.9353 12.8234 14.0848 14.6503 13.2544 15.7654C12.9658 16.1562 12.4696 16.5492 12.8537 17.1664C12.8703 17.1973 12.808 17.2651 12.808 17.3186C12.7764 17.5041 12.7673 17.6927 12.781 17.8803C12.8682 18.4296 12.9741 18.9768 13.0758 19.5262C13.0841 19.5632 13.1049 19.5982 13.1049 19.6352C13.6945 21.2811 14.3796 22.8488 15.8516 23.9556C16.4744 24.4247 16.4972 24.832 16.082 25.4719C15.6523 26.1528 15.1893 26.8215 14.7741 27.5127H15.3388L15.3845 27.4284C15.6917 26.9182 16.0156 26.4285 16.3374 25.9121C16.6592 25.3957 16.9644 24.8732 17.3007 24.3671C17.3943 24.2311 17.5332 24.132 17.6931 24.0873L17.7782 24.0708C17.8766 24.052 17.9777 24.0868 18.0432 24.1619C18.1088 24.2371 18.1288 24.3412 18.0959 24.435C18.0004 24.7086 17.9194 24.9966 17.8467 25.2908C17.6827 25.9492 17.5561 26.6301 17.3962 27.237C17.6121 27.1938 17.7139 27.2062 17.9381 27.1609C18.0253 26.6425 18.2246 25.9142 18.3782 25.3402C18.4509 25.0624 18.592 24.3321 18.81 24.0934C19.028 23.8548 19.709 23.6573 20.2488 23.3981C20.3573 23.3422 20.4734 23.302 20.5934 23.2787C20.705 23.2681 20.8175 23.2729 20.9277 23.2931C21.1752 23.3308 21.4196 23.3872 21.6585 23.4618C22.379 23.7645 22.9834 24.287 23.3837 24.9534C23.8072 25.6426 24.565 26.1775 25.1878 26.7001C25.4903 26.9554 25.8975 27.0525 26.284 26.9614H26.2965C26.666 27.2062 27.374 27.4078 27.7041 27.2864C28.0342 27.165 28.5221 26.9202 28.5221 26.5273C28.5915 26.4954 28.6564 26.4546 28.7151 26.4059C28.863 26.2704 28.8793 26.0445 28.7525 25.8895C28.3269 25.1879 27.3615 24.8732 26.7138 24.4103C25.8031 23.7629 24.9034 23.0963 24.0148 22.4105C23.8532 22.2984 23.7085 22.164 23.5851 22.0114C23.2986 21.6267 23.2944 21.0506 23.1387 20.598C22.963 20.0801 22.7112 19.5906 22.3913 19.1456C22.1449 18.8152 21.9169 18.4718 21.7083 18.1169C21.1228 17.1108 20.5415 16.1048 19.6176 15.3601C19.1131 14.9527 19.1547 14.4445 19.1692 13.8644C19.1892 13.1506 19.0103 12.4452 18.6523 11.8256C17.8654 10.4657 16.4017 9.88549 14.8862 9.76822C14.6222 9.75468 14.3658 9.67543 14.1409 9.5378C13.8276 9.30085 13.5345 9.03868 13.2648 8.75396C12.2987 7.79845 11.072 7.14345 9.73537 6.86944ZM73.4767 0.479371C73.8423 0.467922 74.2048 0.550992 74.5301 0.720799C74.7796 0.868406 74.9846 1.08258 75.1229 1.34012C75.2714 1.6311 75.3639 1.94816 75.3956 2.27434C75.4393 2.66667 75.4573 3.06153 75.4493 3.45629C75.4338 4.06679 75.3164 4.67018 75.1023 5.24077C74.8648 5.88237 74.5732 6.5019 74.2306 7.09242C73.867 7.71812 73.4677 8.32167 73.0347 8.89999C72.5989 9.49411 72.1548 10.0567 71.7169 10.5795L71.6198 10.695L71.9916 10.9637L72.0722 10.8629C72.3599 10.4988 72.6733 10.1563 73.0099 9.83841C73.2135 9.62897 73.4869 9.50464 73.7762 9.48991C74.0912 9.48847 74.401 9.571 74.6747 9.72924C74.9377 9.88984 75.1649 10.1043 75.3419 10.3591C75.5292 10.63 75.669 10.9319 75.755 11.2513C75.8502 11.5926 75.8954 11.9463 75.8893 12.301C75.8851 12.6117 75.8686 12.9119 75.8397 13.1932C75.8116 13.4667 75.7633 13.7375 75.6951 14.0036C75.6265 14.2725 75.536 14.5351 75.4245 14.7887C75.2965 15.0696 75.1459 15.3392 74.9742 15.5949L74.652 16.0799L75.1539 15.7923C75.3811 15.6642 75.598 15.5466 75.8294 15.4228C76.0607 15.2989 76.292 15.1645 76.5316 15.0155C76.7712 14.8664 77.0108 14.6985 77.2463 14.5179C77.4621 14.3531 77.669 14.1765 77.866 13.9889L77.8969 13.9595L77.9362 13.7873C77.9527 13.7223 77.9692 13.6509 77.9878 13.5774C78.1241 13.0211 78.2605 12.4773 78.4237 11.9168C78.5868 11.3563 78.7232 10.8398 78.8368 10.3863C78.8751 10.2513 78.9529 10.1312 79.0598 10.042C79.1831 9.93572 79.3226 9.85062 79.4729 9.79012C79.627 9.72479 79.7877 9.67691 79.9521 9.64737C80.1006 9.61935 80.2514 9.60529 80.4024 9.60538C80.6895 9.60958 80.7928 9.67676 80.8279 9.71665C80.8972 9.79764 80.9314 9.90359 80.9229 10.0106C80.9099 10.2003 80.8773 10.3882 80.8259 10.5711C80.7598 10.8314 80.6895 11.1211 80.5842 11.4423C80.4789 11.7635 80.3797 12.112 80.2723 12.492C80.1649 12.872 80.0595 13.2436 79.9583 13.6257C79.8571 14.0078 79.7745 14.3815 79.7063 14.7363C79.6431 15.0637 79.6065 15.3958 79.5969 15.7293C79.5847 15.9729 79.6155 16.2168 79.6878 16.4494C79.7577 16.6668 79.9629 16.809 80.1876 16.7958C80.4726 16.7881 80.7509 16.7057 80.9952 16.5564C81.2911 16.39 81.5741 16.2013 81.8421 15.9917C82.1209 15.7734 82.3998 15.5445 82.6683 15.3115L82.8501 15.154V15.0995C82.8769 14.8874 82.9058 14.6691 82.9368 14.4424C82.9967 14.0498 83.0649 13.6341 83.1434 13.21C83.2219 12.7859 83.3024 12.4018 83.3871 12.0155C83.4718 11.6292 83.5585 11.2786 83.6412 10.9658C83.7089 10.7049 83.7917 10.4484 83.889 10.1974C83.9275 10.0925 83.9752 9.99132 84.0316 9.89509C84.0664 9.83704 84.112 9.78641 84.1658 9.74604C84.2213 9.70986 84.2842 9.6869 84.3496 9.67886C84.4599 9.66448 84.5711 9.65957 84.6822 9.66416C84.7991 9.66298 84.9159 9.67212 85.0313 9.69145C85.0749 9.69441 85.1153 9.71571 85.1428 9.75024C85.1759 9.80747 85.1931 9.87279 85.1924 9.93918V10.3863L85.18 11.2261V12.3346H85.496L85.5353 12.259C85.6619 12.0057 85.8045 11.7258 85.9628 11.4192C86.1152 11.1231 86.2943 10.842 86.4978 10.5795C86.6888 10.3361 86.9151 10.1237 87.1691 9.94968C87.413 9.78411 87.7022 9.70108 87.9953 9.71245C88.0957 9.71235 88.1952 9.73158 88.2886 9.76913C88.3786 9.80323 88.4613 9.85454 88.5323 9.92029C88.6019 9.9845 88.6568 10.0633 88.6934 10.1512C88.734 10.2509 88.753 10.3583 88.7492 10.4661C88.7419 10.607 88.7253 10.7473 88.6996 10.886V10.9091C88.6666 11.0917 88.6315 11.2723 88.5922 11.4822C88.553 11.6922 88.5137 11.8958 88.4807 12.091C88.4492 12.2608 88.4305 12.4327 88.4249 12.6054C88.4174 12.8075 88.4382 13.0097 88.4869 13.2058C88.5224 13.3564 88.5855 13.4988 88.6728 13.6257C88.7488 13.7283 88.849 13.8098 88.964 13.8629C89.0688 13.9099 89.1821 13.9342 89.2966 13.9343C89.6097 13.935 89.92 13.8729 90.2095 13.7517C90.2488 13.737 90.286 13.7181 90.3231 13.7013L90.4347 13.6509L90.4574 13.6005C90.5256 13.4367 90.5875 13.3045 90.6516 13.1806C90.8499 12.8063 91.0867 12.4545 91.358 12.1309C91.912 11.4684 92.6178 10.9544 93.4132 10.6341C93.5776 10.5681 93.7459 10.5127 93.9172 10.4682C94.4316 10.3448 94.8144 9.90623 94.8735 9.37235C94.9169 8.8643 94.983 8.35625 95.0697 7.8566C95.1978 7.11167 95.3709 6.37549 95.5882 5.65225C95.7876 4.99219 96.0347 4.34802 96.3276 3.72501C96.5744 3.19332 96.8756 2.68949 97.2261 2.22186C97.5135 1.83933 97.8627 1.50922 98.2589 1.24565C98.5764 1.03068 98.9494 0.916 99.3309 0.916042C99.5658 0.911942 99.7956 0.985631 99.9857 1.12598C100.174 1.27756 100.326 1.47161 100.428 1.69281C100.552 1.9582 100.635 2.24146 100.673 2.53257C100.724 2.86801 100.746 3.20726 100.74 3.54657C100.735 3.7565 100.723 3.97904 100.702 4.20787C100.615 5.03935 100.455 5.86132 100.225 6.66415C100.004 7.43316 99.7432 8.18996 99.4445 8.93148C99.145 9.66626 98.829 10.3926 98.4716 11.119C98.1143 11.8454 97.7714 12.6096 97.4389 13.3927C97.3986 13.5003 97.3648 13.6104 97.3377 13.7223C97.3046 13.8524 97.2716 13.9868 97.2406 14.1421C97.2096 14.2975 97.1827 14.4507 97.1621 14.5998C97.1416 14.7529 97.1299 14.9072 97.127 15.0617C97.1245 15.2398 97.1328 15.4179 97.1518 15.5949C97.1688 15.7555 97.2049 15.9134 97.2592 16.0652C97.3062 16.2024 97.3848 16.3262 97.4884 16.4263C97.5969 16.5264 97.7385 16.5811 97.885 16.5795C98.0303 16.5804 98.1748 16.557 98.3126 16.5102C98.4709 16.4583 98.6249 16.3937 98.7732 16.3171C98.926 16.2394 99.0954 16.1429 99.2545 16.0421C99.4135 15.9413 99.5705 15.8363 99.7213 15.7314C99.9753 15.5508 100.151 15.5109 100.308 15.597C100.436 15.6808 100.538 15.8013 100.599 15.9434C100.659 16.0625 100.701 16.1898 100.725 16.3213C100.738 16.4159 100.739 16.512 100.727 16.6068C100.665 17.075 100.184 17.3563 99.7585 17.604L99.5788 17.709C99.397 17.8203 99.2152 17.9273 99.019 18.0302C98.8228 18.1331 98.6307 18.2275 98.4448 18.3052C98.2672 18.3807 98.0851 18.4445 97.8995 18.4963C97.7484 18.5404 97.592 18.563 97.4347 18.5634C97.3155 18.5549 97.1972 18.5353 97.0815 18.5047C96.901 18.4564 96.7284 18.3814 96.5693 18.2821C96.3607 18.1495 96.1728 17.986 96.0116 17.7972C95.8035 17.5484 95.6405 17.2641 95.5303 16.9574L95.456 16.7664L95.3093 16.907C95.0799 17.1303 94.8385 17.3405 94.5864 17.5368C94.3407 17.727 94.0795 17.8956 93.8056 18.0407C93.546 18.1788 93.2742 18.292 92.9939 18.3787C92.7328 18.4592 92.4611 18.4981 92.1883 18.4942C91.8504 18.4977 91.5179 18.4085 91.2258 18.2359C90.9545 18.0673 90.7238 17.8392 90.5503 17.5683C90.3652 17.2759 90.2303 16.9536 90.1517 16.6152C90.0822 16.3206 90.0427 16.0195 90.034 15.7167V15.5298L89.7964 15.6096C89.7627 15.623 89.7282 15.6342 89.6932 15.6432C89.4594 15.7144 89.2163 15.7484 88.9723 15.744C88.6084 15.755 88.2492 15.6572 87.9395 15.4627C87.6786 15.2816 87.4658 15.0378 87.3199 14.7531C87.1589 14.4359 87.0447 14.0963 86.9811 13.7454C86.9088 13.3717 86.851 12.9812 86.8076 12.5865L86.7932 12.4647H86.4296L84.6719 17.2051C84.5851 17.4403 84.5004 17.6376 84.4261 17.7909C84.3659 17.9181 84.2925 18.0385 84.2071 18.1499C84.1519 18.2213 84.0812 18.2787 84.0006 18.3178C83.9211 18.3499 83.836 18.3649 83.7506 18.3619C83.5637 18.3693 83.3791 18.3179 83.2219 18.2149C83.0891 18.1151 82.985 17.981 82.9203 17.8266C82.842 17.6387 82.7925 17.4397 82.7737 17.2366C82.7592 17.1631 82.7592 17.096 82.7592 17.0267L82.7427 16.7454L82.5361 16.8881C82.4741 16.9322 82.4122 16.9784 82.3461 17.0225C82.0086 17.2586 81.6544 17.4691 81.2865 17.6523C80.9147 17.8377 80.5294 17.9935 80.1339 18.1184C79.7816 18.2338 79.4135 18.2919 79.0433 18.2905C78.7864 18.2927 78.5313 18.2457 78.2915 18.152C78.1079 18.0772 77.9454 17.9575 77.8185 17.8035C77.6934 17.6447 77.6064 17.4586 77.5644 17.2597C77.5106 17.0173 77.4863 16.7691 77.4921 16.5207C77.4942 16.4347 77.5045 16.3444 77.5045 16.252L77.521 15.9833L77.2959 16.124C77.0299 16.2929 76.754 16.445 76.4697 16.5795C76.1145 16.7444 75.7487 16.8846 75.3749 16.9994C75.2262 17.0456 75.0672 17.0792 74.8999 17.1149C74.624 17.1612 74.3543 17.2401 74.0964 17.35C73.7082 17.5469 73.3047 17.7112 72.8901 17.8412C72.3607 17.9865 71.8049 18.0016 71.2687 17.8853C71.1303 17.858 70.9919 17.8349 70.8556 17.8119C70.411 17.7534 69.9753 17.6392 69.5584 17.4718L69.3643 17.392C69.1866 17.308 68.9181 17.2093 68.6744 17.0981L68.6021 17.0645L68.5381 17.1107C68.2828 17.2925 68.0157 17.4567 67.7387 17.6019C67.4615 17.7457 67.1718 17.8631 66.8732 17.9525C66.571 18.0397 66.2579 18.0815 65.9438 18.0764C65.6649 18.0701 65.4315 17.8433 65.2249 17.3983C65.0101 16.9196 64.911 16.2037 64.9254 15.2737C64.9343 14.8734 64.9646 14.474 65.0163 14.0771C65.0721 13.6551 65.1382 13.1995 65.2229 12.6852L65.2477 12.5256H64.8594L62.327 17.4361C62.2483 17.6213 62.1203 17.7806 61.9573 17.8958C61.815 17.9769 61.6534 18.0161 61.4905 18.0092C61.3037 18.0155 61.1194 17.9643 60.9617 17.8622C60.8283 17.7622 60.7241 17.6272 60.6601 17.4718C60.5813 17.2841 60.5319 17.085 60.5135 16.8818C60.5145 16.87 60.5145 16.858 60.5135 16.8461L60.4908 16.5837L60.2656 16.7265C60.026 16.865 59.7658 17.0099 59.4931 17.1464C59.2242 17.2814 58.9484 17.402 58.6669 17.5074C58.4044 17.6079 58.1352 17.6893 57.8614 17.751C57.6238 17.8078 57.3804 17.836 57.1364 17.835C56.9506 17.8371 56.7673 17.7916 56.6034 17.7027C56.4532 17.6116 56.3243 17.4884 56.2255 17.3416C56.1064 17.1644 56.0132 16.9707 55.9487 16.7664C55.8631 16.5159 55.7941 16.2599 55.7421 16.0001L55.6843 15.7062L55.5025 15.9413C55.2863 16.2183 55.0516 16.4799 54.8002 16.7244C54.5701 16.9506 54.3213 17.1564 54.0567 17.3395C53.8229 17.503 53.5704 17.6369 53.3048 17.7384C53.0773 17.827 52.8358 17.8725 52.5922 17.8727C52.4134 17.8704 52.2364 17.8356 52.0696 17.7699C51.9085 17.7011 51.7666 17.5929 51.6565 17.455C51.5213 17.2782 51.4229 17.0754 51.3673 16.8587C51.2888 16.5484 51.2554 16.2279 51.2682 15.9077C51.2933 15.2995 51.3624 14.6939 51.4748 14.096C51.5429 13.6824 51.6235 13.2331 51.7102 12.7544L51.7681 12.4353L49.8347 13.7244L49.8492 13.8146C49.8822 14.0165 49.8974 14.2209 49.8946 14.4256C49.8924 14.8646 49.8105 15.2994 49.653 15.7083C49.5056 16.091 49.2962 16.4458 49.0333 16.758C48.7641 17.07 48.4525 17.3415 48.1079 17.5641C47.7507 17.7978 47.3681 17.9887 46.9678 18.1331C46.5533 18.2832 46.126 18.3935 45.6913 18.4627C45.2481 18.5346 44.7995 18.5669 44.3508 18.5592C43.7301 18.5502 43.1132 18.4613 42.5145 18.2947C41.9496 18.141 41.414 17.8919 40.9302 17.5578C40.4772 17.2419 40.099 16.8274 39.8231 16.3444C39.5397 15.8275 39.4011 15.2415 39.4224 14.6502C39.4221 14.3468 39.4811 14.0464 39.5959 13.7664C39.6962 13.5334 39.8361 13.3202 40.009 13.1365C40.1585 12.9762 40.3375 12.8471 40.5357 12.7565C40.7032 12.6723 40.888 12.6298 41.0748 12.6327C41.2353 12.63 41.3914 12.6859 41.5148 12.7901C41.6448 12.9108 41.7113 13.0865 41.6945 13.2646C41.6934 13.3622 41.6816 13.4594 41.6594 13.5543C41.6367 13.6572 41.616 13.758 41.5912 13.8671C41.5664 13.9763 41.5437 14.1002 41.521 14.2408C41.499 14.3853 41.4873 14.5313 41.4859 14.6775C41.4698 14.9868 41.5415 15.2943 41.6924 15.5634C41.8429 15.8179 42.0494 16.0334 42.2956 16.1932C42.5685 16.3678 42.8679 16.4955 43.1817 16.5711C43.5267 16.6565 43.88 16.7023 44.2351 16.7076C44.6684 16.7119 45.1008 16.6661 45.524 16.5711C45.9292 16.4823 46.3191 16.3323 46.6807 16.1261C47.0022 15.9423 47.2834 15.6937 47.5069 15.3955C47.7162 15.108 47.8299 14.7601 47.8312 14.4025C47.8402 14.0727 47.7494 13.748 47.5709 13.4724C47.3691 13.1733 47.1208 12.9095 46.8356 12.6915C46.5008 12.4317 46.1457 12.2 45.7739 11.9987C45.3732 11.7782 44.9663 11.5599 44.547 11.3311C44.1277 11.1022 43.7125 10.8629 43.318 10.6194C42.9316 10.3817 42.5691 10.1061 42.2357 9.79642C41.9275 9.50826 41.6697 9.16892 41.4735 8.79292C41.2772 8.40384 41.1819 7.97027 41.1967 7.53329C41.2066 7.08332 41.3197 6.64191 41.5272 6.24427C41.7594 5.79902 42.0869 5.41235 42.4856 5.1127C42.9562 4.76068 43.4841 4.49561 44.0451 4.32964C44.75 4.12281 45.4827 4.0307 46.2159 4.05672C46.7404 4.06578 47.2605 4.15495 47.7589 4.32124C48.2402 4.48045 48.6929 4.71797 49.0994 5.02453C49.4806 5.31476 49.8008 5.6795 50.0413 6.09731C50.2791 6.51523 50.3985 6.99189 50.3862 7.47451C50.3794 7.78524 50.3236 8.09285 50.221 8.38564C50.1008 8.7226 49.9368 9.04173 49.7335 9.33456C49.548 9.62576 49.3028 9.87281 49.0147 10.0588C48.8069 10.1971 48.5667 10.2768 48.3186 10.2898C48.1593 10.2962 48.004 10.2381 47.8869 10.1281C47.7721 10.0066 47.7149 9.84036 47.73 9.67256C47.7372 9.50498 47.7714 9.33974 47.8312 9.1834C47.9154 8.96165 48.0242 8.75035 48.1555 8.55359C48.2764 8.36919 48.3775 8.17211 48.457 7.96576C48.5189 7.7991 48.5531 7.62316 48.5582 7.44512C48.5665 7.21677 48.5028 6.9917 48.3765 6.80271C48.2356 6.6043 48.0519 6.44128 47.8394 6.32615C47.5738 6.18195 47.2883 6.07933 46.9926 6.02174C46.6299 5.9489 46.2613 5.91025 45.8916 5.90627C45.5024 5.89355 45.1134 5.93882 44.737 6.04063C44.4426 6.11934 44.1633 6.24779 43.9108 6.42062C43.714 6.55448 43.5495 6.73172 43.4295 6.93917C43.3298 7.11057 43.2744 7.30485 43.2684 7.5039C43.2557 7.8062 43.3397 8.10455 43.508 8.35415C43.7124 8.63675 43.9607 8.88352 44.2434 9.08473C44.5795 9.33032 44.9338 9.5493 45.303 9.73974L46.5299 10.3884C46.9554 10.611 47.3685 10.8503 47.7692 11.1043C48.159 11.3503 48.5207 11.6397 48.8474 11.9672C49.0086 12.1271 49.1545 12.3021 49.2832 12.4899L49.372 12.6159L52.6418 9.62637H52.6666L52.7161 9.56969C52.8076 9.45938 52.9157 9.36444 53.0363 9.28837C53.1735 9.2043 53.3305 9.15934 53.4907 9.15821C53.7104 9.15793 53.9282 9.19922 54.1331 9.27997C54.2178 9.32616 54.2673 9.37025 54.2673 9.41643C54.2074 9.74394 54.1413 10.1008 54.0711 10.506C54.0009 10.9112 53.9224 11.3185 53.8542 11.73C53.7861 12.1414 53.7158 12.5319 53.6477 12.9308C53.5795 13.3297 53.5196 13.674 53.4659 13.9805C53.4122 14.287 53.3688 14.5347 53.3379 14.7216C53.3009 14.9485 53.2927 15.0002 53.2909 15.0199L53.2904 15.0323C53.2883 15.1505 53.298 15.2687 53.3193 15.385C53.3402 15.4943 53.3757 15.6002 53.4246 15.6999C53.4747 15.7963 53.5452 15.8802 53.6312 15.9455C53.7232 16.0149 53.8347 16.0524 53.9493 16.0526C54.1154 16.0525 54.2793 16.0137 54.4285 15.9392C54.5933 15.8541 54.7433 15.742 54.8725 15.6075C55.0185 15.4515 55.1422 15.2756 55.2402 15.0848C55.3516 14.8623 55.4335 14.6258 55.4839 14.3815L56.4713 9.63897C56.494 9.5361 56.5952 9.44163 56.7728 9.36185C56.9895 9.26614 57.2246 9.22164 57.4606 9.23169C57.695 9.22322 57.9275 9.27828 58.134 9.39124C58.322 9.50881 58.3406 9.62847 58.3406 9.70615C58.3334 9.93124 58.312 10.1556 58.2765 10.378C58.2373 10.6593 58.1856 10.9805 58.1195 11.3248C58.0534 11.6691 57.9874 12.0239 57.913 12.3913C57.8386 12.7586 57.7705 13.0945 57.7064 13.42C57.6424 13.7454 57.5908 14.0204 57.5495 14.2597C57.5163 14.4315 57.4949 14.6055 57.4854 14.7803V15.2695C57.4872 15.4111 57.5052 15.552 57.5391 15.6894C57.5679 15.8111 57.6294 15.9223 57.7168 16.0106C57.8202 16.1 57.9529 16.1465 58.0886 16.1407C58.2724 16.1369 58.4545 16.1029 58.6277 16.04C58.8473 15.9639 59.0612 15.872 59.268 15.765C59.4931 15.6495 59.7245 15.5193 59.9537 15.3766C60.1334 15.2653 60.3152 15.1414 60.5094 14.9966L60.5589 14.9609L60.5796 14.751C60.6354 14.2135 60.7056 13.6677 60.7861 13.1113C60.8667 12.555 60.9617 12.0218 61.0609 11.5053C61.16 10.9889 61.2571 10.5459 61.3459 10.1869C61.4053 9.94004 61.5321 9.71521 61.7115 9.5382C61.9008 9.36375 62.1529 9.27706 62.4076 9.29887C62.6277 9.27539 62.8434 9.37302 62.9735 9.55499C63.0954 9.78602 63.1512 10.0471 63.1346 10.3087C63.13 10.4302 63.119 10.5515 63.1016 10.6719C63.0809 10.8293 63.0561 10.9994 63.0252 11.1904C62.9942 11.3815 62.9611 11.5767 62.9281 11.7782C62.895 11.9798 62.8641 12.1666 62.8331 12.3388C62.8021 12.5109 62.7773 12.66 62.7566 12.788C62.7396 12.8796 62.7279 12.9722 62.7215 13.0652V13.2058H63.1243L63.1636 13.1344C63.2028 13.0652 63.2627 12.9539 63.3453 12.8027L63.6304 12.2779C63.7378 12.068 63.8514 11.858 63.9753 11.6481C64.0992 11.4381 64.2149 11.2177 64.3223 11.0183C64.4297 10.8188 64.5185 10.6404 64.6156 10.4871C64.7127 10.3339 64.7767 10.2205 64.8222 10.147C64.9648 9.88084 65.1799 9.66215 65.4418 9.51721C65.6872 9.40333 65.9551 9.34872 66.2247 9.35765C66.4763 9.35427 66.7113 9.48486 66.8443 9.70195C67.0211 10.0074 67.1018 10.3605 67.0757 10.7139C67.0685 10.8219 67.0533 10.9293 67.0302 11.0351C67.0013 11.1925 66.9641 11.3899 66.9166 11.6124C66.8691 11.8349 66.8195 12.0784 66.7617 12.3493C66.7039 12.6201 66.6522 12.8951 66.6047 13.1764C66.5572 13.4577 66.5159 13.7412 66.4849 14.0162C66.4533 14.2726 66.4347 14.5304 66.4292 14.7887C66.415 15.1302 66.4612 15.4715 66.5655 15.7965C66.6279 16.0663 66.8608 16.26 67.1335 16.2688C67.2636 16.2656 67.3917 16.2349 67.5094 16.1785C67.6518 16.1138 67.7898 16.0394 67.9225 15.956C67.9969 15.9077 68.0774 15.8531 68.1683 15.7881L68.2179 15.7503V15.6873C68.2344 15.5046 68.2509 15.3178 68.2716 15.1225C68.3294 14.5788 68.4079 13.9196 68.505 13.1848C68.6021 12.45 68.7322 11.6145 68.8933 10.6992C69.0007 10.0966 69.135 9.40804 69.294 8.66276C69.4531 7.91748 69.641 7.1512 69.8497 6.39333C70.0583 5.63545 70.2958 4.88597 70.554 4.16588C70.7866 3.50752 71.0712 2.86933 71.405 2.25755C71.6659 1.76824 72.0004 1.3234 72.3965 0.939136C72.6818 0.645594 73.0707 0.480076 73.4767 0.479371ZM94.6752 11.4444L94.6298 11.4927C94.2138 11.6838 93.8331 11.9458 93.5041 12.2674C93.1837 12.5891 92.9059 12.9518 92.6778 13.3465C92.4617 13.7161 92.2884 14.1099 92.1615 14.52C92.049 14.8711 91.9857 15.2364 91.9735 15.6054C91.9713 15.7414 91.9838 15.8773 92.0107 16.0106C92.0397 16.153 92.0982 16.2875 92.1821 16.4053C92.2759 16.5325 92.4004 16.6331 92.5436 16.6971C92.7269 16.7767 92.9247 16.8161 93.124 16.8126H93.1364C93.268 16.8121 93.3976 16.7797 93.5144 16.7181C93.6379 16.6555 93.7531 16.5772 93.8572 16.485C93.966 16.3855 94.0668 16.2774 94.1588 16.1617C94.253 16.0442 94.3399 15.9208 94.4191 15.7923C94.6106 15.4777 94.7764 15.1477 94.9148 14.8055L94.9189 14.7783V14.7363C94.8966 14.6052 94.8842 14.4725 94.8818 14.3395C94.8632 14.1547 94.8632 13.9427 94.8632 13.7097V11.7908C94.8549 11.583 94.8528 11.5137 94.7599 11.4759L94.6752 11.4444ZM72.7806 11.3185C72.5406 11.3155 72.3024 11.3619 72.0804 11.4549C71.8361 11.5562 71.6142 11.7061 71.4277 11.8958C71.2134 12.1189 71.0356 12.3755 70.901 12.6558C70.7359 13.0054 70.6211 13.3773 70.5602 13.7601C70.5003 14.0918 70.4466 14.413 70.4053 14.6964C70.364 14.9798 70.3268 15.2023 70.2999 15.4522C70.2731 15.702 70.2462 15.9455 70.2256 16.1554C70.2111 16.2961 70.3247 16.3444 70.775 16.4704C70.9981 16.5333 71.2584 16.6089 71.3183 16.6089C71.4639 16.6373 71.6119 16.6514 71.7603 16.6509C72.1241 16.659 72.4826 16.5606 72.793 16.3675C73.1774 16.0997 73.4698 15.7165 73.6296 15.2716C73.8415 14.6833 73.9802 14.0705 74.0427 13.4472L74.042 13.4492C74.0632 13.2754 74.0774 13.0944 74.0852 12.9132L74.0922 12.6411C74.0945 12.4802 74.0786 12.3196 74.0447 12.1624C74.0094 12.0079 73.9386 11.864 73.8382 11.7425C73.726 11.6094 73.5844 11.5051 73.4251 11.4381C73.2195 11.3576 73.0009 11.317 72.7806 11.3185ZM98.8868 2.80548H98.8765C98.6018 2.82614 98.3573 2.98974 98.23 3.23796C98.0363 3.54803 97.8836 3.88259 97.7756 4.23306C97.6363 4.66363 97.5204 5.10166 97.4285 5.54518C97.3273 6.02174 97.2447 6.4794 97.1745 6.92657C97.1042 7.37374 97.0505 7.77052 97.0072 8.12742C96.9638 8.48431 96.9349 8.73833 96.9204 8.88739C96.8915 9.1939 96.8647 9.48991 96.8461 9.77543C96.8275 10.0609 96.813 10.3192 96.8027 10.5564C96.7924 10.7936 96.782 10.9994 96.782 11.1736L96.7651 12.3312L97.0361 11.7153V11.7237C97.3976 10.9217 97.728 10.1071 98.0461 9.31146C98.1721 8.97766 98.3023 8.61657 98.4365 8.23238C98.5708 7.8482 98.6906 7.47241 98.8021 7.09242C98.9137 6.71243 99.0128 6.33244 99.0954 5.96505C99.1748 5.61394 99.2348 5.25859 99.2751 4.90067C99.3206 4.46189 99.3474 4.1092 99.3474 3.85098C99.367 3.59364 99.3376 3.33488 99.2607 3.0889C99.2085 2.92285 99.0583 2.80892 98.8868 2.80548ZM73.3631 2.00982C73.1584 2.03139 72.9748 2.14753 72.8653 2.32473C72.7 2.55548 72.5613 2.80486 72.4522 3.06791C72.318 3.36392 72.1816 3.71242 72.0515 4.1176C71.9214 4.52278 71.7933 4.93426 71.6714 5.36253C71.5496 5.7908 71.4277 6.25267 71.3224 6.68934C71.217 7.12601 71.1158 7.55638 71.0249 7.96576C70.9341 8.37514 70.8556 8.73624 70.7895 9.07004C70.7234 9.40384 70.6697 9.66836 70.6304 9.8783L70.4631 10.781L70.8783 9.97907C71.0456 9.66206 71.2356 9.32406 71.4463 8.98186C71.657 8.63966 71.8677 8.27857 72.0887 7.89858C72.3097 7.51859 72.5163 7.13651 72.7228 6.74182C72.9294 6.34714 73.1194 5.93986 73.2908 5.51998C73.4611 5.10492 73.6053 4.67929 73.7225 4.24566C73.8397 3.80792 73.9178 3.36034 73.9559 2.90835C73.9559 2.88736 73.9539 2.84957 73.9435 2.73201C73.9324 2.63368 73.9095 2.5371 73.8754 2.44439C73.8371 2.3414 73.7812 2.24614 73.7101 2.16307C73.622 2.06292 73.4953 2.00692 73.3631 2.00982Z" fill="url(#paint0_linear_1895_3779)"/>
<path d="M117.645 12.3932C117.873 12.3932 117.988 12.7021 117.988 13.32C117.988 13.6558 117.847 14.0655 117.565 14.549C117.282 15.0192 116.913 15.4557 116.456 15.8587C116.013 16.2482 115.516 16.5706 114.965 16.8258C114.415 17.081 113.891 17.2086 113.394 17.2086C112.897 17.2086 112.507 17.1146 112.225 16.9265C111.943 16.7385 111.722 16.4832 111.56 16.1609C111.332 15.7042 111.144 14.8378 110.996 13.5618C110.849 12.2723 110.701 11.3723 110.553 10.8619C110.204 10.7948 109.895 10.6604 109.626 10.459C109.371 10.244 109.243 9.98883 109.243 9.69332C109.243 9.38439 109.378 9.16276 109.646 9.02843C109.928 8.89411 110.244 8.82695 110.593 8.82695C110.956 8.82695 111.278 8.91426 111.56 9.08888C111.937 8.77994 112.239 8.41727 112.467 8.00088C112.709 7.57105 112.83 7.00019 112.83 6.28829C112.83 5.56295 112.588 4.98537 112.104 4.55555C111.621 4.12572 110.909 3.9108 109.969 3.9108C109.042 3.9108 108.33 3.98468 107.833 4.13243C107.336 4.28019 106.906 4.44137 106.544 4.61599C106.194 4.79061 105.879 4.95179 105.597 5.09954C105.328 5.2473 105.073 5.32118 104.831 5.32118C104.589 5.32118 104.468 5.2473 104.468 5.09954C104.468 4.93836 104.596 4.68315 104.851 4.33392C105.106 3.98468 105.482 3.63545 105.979 3.28621C107.229 2.41313 108.639 1.9833 110.21 1.99673C111.782 1.99673 113.078 2.29224 114.099 2.88325C115.295 3.58172 115.892 4.62942 115.892 6.02636C115.906 7.18152 115.603 8.14192 114.986 8.90755C114.368 9.67317 113.602 10.2239 112.689 10.5597C112.89 11.003 113.051 11.4798 113.172 11.9902C113.307 12.5006 113.434 12.9708 113.555 13.4006C113.676 13.8304 113.81 14.1864 113.958 14.4684C114.119 14.7505 114.307 14.8915 114.522 14.8915C114.751 14.8915 115.019 14.7639 115.328 14.5087C115.65 14.2401 115.966 13.9513 116.275 13.6424C116.584 13.3334 116.859 13.0513 117.101 12.7961C117.356 12.5275 117.538 12.3932 117.645 12.3932ZM108.881 5.13984C109.055 5.13984 109.143 5.36819 109.143 5.82488C109.143 6.28157 109.116 6.7114 109.062 7.11436C108.941 7.89342 108.787 8.61876 108.599 9.29036C108.115 11.1171 107.873 12.185 107.873 12.4939V15.4557C107.873 16.181 107.598 16.678 107.047 16.9467C106.792 17.0675 106.544 17.1817 106.302 17.2892C106.073 17.3966 105.811 17.4504 105.516 17.4504C104.952 17.4504 104.67 16.8056 104.67 15.5161C104.67 14.2132 104.972 12.5745 105.576 10.6C106.181 8.62547 106.812 7.12108 107.47 6.0868C107.605 5.88532 107.799 5.67713 108.055 5.46221C108.31 5.2473 108.585 5.13984 108.881 5.13984Z" fill="#1987B6"/>
<path d="M127.496 13.8841C127.845 13.6289 128.16 13.32 128.443 12.9573C128.725 12.5812 128.96 12.3932 129.148 12.3932C129.349 12.3932 129.45 12.6887 129.45 13.2797C129.45 13.8573 129.282 14.408 128.946 14.9318C128.624 15.4423 128.194 15.8721 127.657 16.2213C126.555 16.9467 125.252 17.3093 123.748 17.3093C121.921 17.3093 120.504 16.8526 119.497 15.9392C118.489 15.0259 117.986 13.7565 117.986 12.1312C117.986 10.1299 118.469 8.22922 119.436 6.42932C119.759 5.83831 120.121 5.29431 120.524 4.79732C120.215 4.43466 119.967 4.05856 119.779 3.66903C119.604 3.26606 119.517 2.96384 119.517 2.76236C119.517 2.39969 119.651 2.21836 119.92 2.21836C120.108 2.23179 120.323 2.3594 120.565 2.60117L121.189 3.20562C121.35 3.3668 121.518 3.50113 121.693 3.60858C123.023 2.48029 124.453 1.91614 125.984 1.91614C127.529 1.91614 128.53 2.34596 128.987 3.20562C129.148 3.52799 129.228 3.92424 129.228 4.39436C129.228 5.10626 128.919 5.70399 128.301 6.18755C127.684 6.6711 126.851 6.91288 125.803 6.91288C124.769 6.91288 123.694 6.69797 122.579 6.26814C121.626 7.89342 121.149 9.59258 121.149 11.3656C121.149 13.8237 122.129 15.0527 124.091 15.0527C125.299 15.0527 126.434 14.6632 127.496 13.8841ZM123.547 5.01895C124.232 5.2473 124.977 5.36147 125.783 5.36147C126.589 5.36147 126.992 5.13984 126.992 4.69658C126.992 4.17273 126.663 3.9108 126.005 3.9108C125.105 3.9108 124.285 4.28019 123.547 5.01895Z" fill="#1987B6"/>
<path d="M40.9396 30H39.7246V23.493H40.9396V30Z" fill="#1987B6"/>
<path d="M44.9237 26.283C44.8937 26.331 44.8622 26.3655 44.8292 26.3865C44.7962 26.4045 44.7542 26.4135 44.7032 26.4135C44.6492 26.4135 44.5907 26.3985 44.5277 26.3685C44.4677 26.3385 44.3972 26.3055 44.3162 26.2695C44.2352 26.2305 44.1422 26.196 44.0372 26.166C43.9352 26.136 43.8137 26.121 43.6727 26.121C43.4537 26.121 43.2812 26.1675 43.1552 26.2605C43.0322 26.3535 42.9707 26.475 42.9707 26.625C42.9707 26.724 43.0022 26.808 43.0652 26.877C43.1312 26.943 43.2167 27.0015 43.3217 27.0525C43.4297 27.1035 43.5512 27.15 43.6862 27.192C43.8212 27.231 43.9577 27.2745 44.0957 27.3225C44.2367 27.3705 44.3747 27.426 44.5097 27.489C44.6447 27.549 44.7647 27.627 44.8697 27.723C44.9777 27.816 45.0632 27.9285 45.1262 28.0605C45.1922 28.1925 45.2252 28.3515 45.2252 28.5375C45.2252 28.7595 45.1847 28.965 45.1037 29.154C45.0257 29.34 44.9087 29.502 44.7527 29.64C44.5967 29.775 44.4032 29.8815 44.1722 29.9595C43.9442 30.0345 43.6802 30.072 43.3802 30.072C43.2212 30.072 43.0652 30.057 42.9122 30.027C42.7622 30 42.6167 29.961 42.4757 29.91C42.3377 29.859 42.2087 29.799 42.0887 29.73C41.9717 29.661 41.8682 29.586 41.7782 29.505L42.0347 29.082C42.0677 29.031 42.1067 28.992 42.1517 28.965C42.1967 28.938 42.2537 28.9245 42.3227 28.9245C42.3917 28.9245 42.4562 28.944 42.5162 28.983C42.5792 29.022 42.6512 29.064 42.7322 29.109C42.8132 29.154 42.9077 29.196 43.0157 29.235C43.1267 29.274 43.2662 29.2935 43.4342 29.2935C43.5662 29.2935 43.6787 29.2785 43.7717 29.2485C43.8677 29.2155 43.9457 29.1735 44.0057 29.1225C44.0687 29.0715 44.1137 29.013 44.1407 28.947C44.1707 28.878 44.1857 28.8075 44.1857 28.7355C44.1857 28.6275 44.1527 28.539 44.0867 28.47C44.0237 28.401 43.9382 28.341 43.8302 28.29C43.7252 28.239 43.6037 28.194 43.4657 28.155C43.3307 28.113 43.1912 28.068 43.0472 28.02C42.9062 27.972 42.7667 27.9165 42.6287 27.8535C42.4937 27.7875 42.3722 27.705 42.2642 27.606C42.1592 27.507 42.0737 27.3855 42.0077 27.2415C41.9447 27.0975 41.9132 26.9235 41.9132 26.7195C41.9132 26.5305 41.9507 26.3505 42.0257 26.1795C42.1007 26.0085 42.2102 25.86 42.3542 25.734C42.5012 25.605 42.6827 25.503 42.8987 25.428C43.1177 25.35 43.3697 25.311 43.6547 25.311C43.9727 25.311 44.2622 25.3635 44.5232 25.4685C44.7842 25.5735 45.0017 25.7115 45.1757 25.8825L44.9237 26.283Z" fill="#1987B6"/>
<path d="M48.8788 26.283C48.8488 26.331 48.8173 26.3655 48.7843 26.3865C48.7513 26.4045 48.7093 26.4135 48.6583 26.4135C48.6043 26.4135 48.5458 26.3985 48.4828 26.3685C48.4228 26.3385 48.3523 26.3055 48.2713 26.2695C48.1903 26.2305 48.0973 26.196 47.9923 26.166C47.8903 26.136 47.7688 26.121 47.6278 26.121C47.4088 26.121 47.2363 26.1675 47.1103 26.2605C46.9873 26.3535 46.9258 26.475 46.9258 26.625C46.9258 26.724 46.9573 26.808 47.0203 26.877C47.0863 26.943 47.1718 27.0015 47.2768 27.0525C47.3848 27.1035 47.5063 27.15 47.6413 27.192C47.7763 27.231 47.9128 27.2745 48.0508 27.3225C48.1918 27.3705 48.3298 27.426 48.4648 27.489C48.5998 27.549 48.7198 27.627 48.8248 27.723C48.9328 27.816 49.0183 27.9285 49.0813 28.0605C49.1473 28.1925 49.1803 28.3515 49.1803 28.5375C49.1803 28.7595 49.1398 28.965 49.0588 29.154C48.9808 29.34 48.8638 29.502 48.7078 29.64C48.5518 29.775 48.3583 29.8815 48.1273 29.9595C47.8993 30.0345 47.6353 30.072 47.3353 30.072C47.1763 30.072 47.0203 30.057 46.8673 30.027C46.7173 30 46.5718 29.961 46.4308 29.91C46.2928 29.859 46.1638 29.799 46.0438 29.73C45.9268 29.661 45.8233 29.586 45.7333 29.505L45.9898 29.082C46.0228 29.031 46.0618 28.992 46.1068 28.965C46.1518 28.938 46.2088 28.9245 46.2778 28.9245C46.3468 28.9245 46.4113 28.944 46.4713 28.983C46.5343 29.022 46.6063 29.064 46.6873 29.109C46.7683 29.154 46.8628 29.196 46.9708 29.235C47.0818 29.274 47.2213 29.2935 47.3893 29.2935C47.5213 29.2935 47.6338 29.2785 47.7268 29.2485C47.8228 29.2155 47.9008 29.1735 47.9608 29.1225C48.0238 29.0715 48.0688 29.013 48.0958 28.947C48.1258 28.878 48.1408 28.8075 48.1408 28.7355C48.1408 28.6275 48.1078 28.539 48.0418 28.47C47.9788 28.401 47.8933 28.341 47.7853 28.29C47.6803 28.239 47.5588 28.194 47.4208 28.155C47.2858 28.113 47.1463 28.068 47.0023 28.02C46.8613 27.972 46.7218 27.9165 46.5838 27.8535C46.4488 27.7875 46.3273 27.705 46.2193 27.606C46.1143 27.507 46.0288 27.3855 45.9628 27.2415C45.8998 27.0975 45.8683 26.9235 45.8683 26.7195C45.8683 26.5305 45.9058 26.3505 45.9808 26.1795C46.0558 26.0085 46.1653 25.86 46.3093 25.734C46.4563 25.605 46.6378 25.503 46.8538 25.428C47.0728 25.35 47.3248 25.311 47.6098 25.311C47.9278 25.311 48.2173 25.3635 48.4783 25.4685C48.7393 25.5735 48.9568 25.7115 49.1308 25.8825L48.8788 26.283Z" fill="#1987B6"/>
<path d="M53.9949 25.383V30H53.3154C53.1684 30 53.0754 29.9325 53.0364 29.7975L52.9599 29.4285C52.7709 29.6205 52.5624 29.7765 52.3344 29.8965C52.1064 30.0135 51.8379 30.072 51.5289 30.072C51.2769 30.072 51.0534 30.03 50.8584 29.946C50.6664 29.859 50.5044 29.7375 50.3724 29.5815C50.2404 29.4255 50.1399 29.241 50.0709 29.028C50.0049 28.812 49.9719 28.575 49.9719 28.317V25.383H51.0834V28.317C51.0834 28.599 51.1479 28.818 51.2769 28.974C51.4089 29.127 51.6054 29.2035 51.8664 29.2035C52.0584 29.2035 52.2384 29.1615 52.4064 29.0775C52.5744 28.9905 52.7334 28.872 52.8834 28.722V25.383H53.9949Z" fill="#1987B6"/>
<path d="M57.536 28.029C57.215 28.044 56.945 28.0725 56.726 28.1145C56.507 28.1535 56.3315 28.2045 56.1995 28.2675C56.0675 28.3305 55.973 28.404 55.916 28.488C55.859 28.572 55.8305 28.6635 55.8305 28.7625C55.8305 28.9575 55.8875 29.097 56.0015 29.181C56.1185 29.265 56.27 29.307 56.456 29.307C56.684 29.307 56.8805 29.2665 57.0455 29.1855C57.2135 29.1015 57.377 28.9755 57.536 28.8075V28.029ZM54.989 26.0265C55.52 25.5405 56.159 25.2975 56.906 25.2975C57.176 25.2975 57.4175 25.3425 57.6305 25.4325C57.8435 25.5195 58.0235 25.6425 58.1705 25.8015C58.3175 25.9575 58.4285 26.145 58.5035 26.364C58.5815 26.583 58.6205 26.823 58.6205 27.084V30H58.1165C58.0115 30 57.9305 29.985 57.8735 29.955C57.8165 29.922 57.7715 29.8575 57.7385 29.7615L57.6395 29.4285C57.5225 29.5335 57.4085 29.6265 57.2975 29.7075C57.1865 29.7855 57.071 29.8515 56.951 29.9055C56.831 29.9595 56.702 30 56.564 30.027C56.429 30.057 56.279 30.072 56.114 30.072C55.919 30.072 55.739 30.0465 55.574 29.9955C55.409 29.9415 55.2665 29.862 55.1465 29.757C55.0265 29.652 54.9335 29.5215 54.8675 29.3655C54.8015 29.2095 54.7685 29.028 54.7685 28.821C54.7685 28.704 54.788 28.5885 54.827 28.4745C54.866 28.3575 54.929 28.2465 55.016 28.1415C55.106 28.0365 55.2215 27.9375 55.3625 27.8445C55.5035 27.7515 55.676 27.6705 55.88 27.6015C56.087 27.5325 56.327 27.477 56.6 27.435C56.873 27.39 57.185 27.363 57.536 27.354V27.084C57.536 26.775 57.47 26.547 57.338 26.4C57.206 26.25 57.0155 26.175 56.7665 26.175C56.5865 26.175 56.4365 26.196 56.3165 26.238C56.1995 26.28 56.096 26.328 56.006 26.382C55.916 26.433 55.8335 26.4795 55.7585 26.5215C55.6865 26.5635 55.6055 26.5845 55.5155 26.5845C55.4375 26.5845 55.3715 26.565 55.3175 26.526C55.2635 26.484 55.22 26.436 55.187 26.382L54.989 26.0265Z" fill="#1987B6"/>
<path d="M60.7068 25.95C60.7998 25.857 60.8973 25.7715 60.9993 25.6935C61.1043 25.6125 61.2138 25.545 61.3278 25.491C61.4448 25.434 61.5693 25.3905 61.7013 25.3605C61.8333 25.3275 61.9773 25.311 62.1333 25.311C62.3853 25.311 62.6088 25.3545 62.8038 25.4415C62.9988 25.5255 63.1608 25.6455 63.2898 25.8015C63.4218 25.9545 63.5208 26.139 63.5868 26.355C63.6558 26.568 63.6903 26.8035 63.6903 27.0615V30H62.5788V27.0615C62.5788 26.7795 62.5143 26.562 62.3853 26.409C62.2563 26.253 62.0598 26.175 61.7958 26.175C61.6038 26.175 61.4238 26.2185 61.2558 26.3055C61.0878 26.3925 60.9288 26.511 60.7788 26.661V30H59.6673V25.383H60.3468C60.4908 25.383 60.5853 25.4505 60.6303 25.5855L60.7068 25.95Z" fill="#1987B6"/>
<path d="M68.0549 26.3595C68.0219 26.4015 67.9888 26.4345 67.9559 26.4585C67.9258 26.4825 67.8808 26.4945 67.8209 26.4945C67.7639 26.4945 67.7084 26.478 67.6544 26.445C67.6004 26.409 67.5359 26.37 67.4609 26.328C67.3859 26.283 67.2959 26.244 67.1909 26.211C67.0889 26.175 66.9614 26.157 66.8084 26.157C66.6134 26.157 66.4424 26.193 66.2954 26.265C66.1484 26.334 66.0254 26.4345 65.9264 26.5665C65.8304 26.6985 65.7584 26.859 65.7104 27.048C65.6624 27.234 65.6384 27.4455 65.6384 27.6825C65.6384 27.9285 65.6639 28.1475 65.7149 28.3395C65.7689 28.5315 65.8454 28.6935 65.9444 28.8255C66.0434 28.9545 66.1634 29.0535 66.3044 29.1225C66.4454 29.1885 66.6044 29.2215 66.7814 29.2215C66.9584 29.2215 67.1009 29.2005 67.2089 29.1585C67.3199 29.1135 67.4128 29.0655 67.4879 29.0145C67.5629 28.9605 67.6273 28.9125 67.6814 28.8705C67.7383 28.8255 67.8014 28.803 67.8704 28.803C67.9604 28.803 68.0279 28.8375 68.0729 28.9065L68.3924 29.3115C68.2694 29.4555 68.1359 29.577 67.9919 29.676C67.8479 29.772 67.6979 29.85 67.5419 29.91C67.3889 29.967 67.2299 30.0075 67.0649 30.0315C66.9029 30.0555 66.7409 30.0675 66.5789 30.0675C66.2939 30.0675 66.0254 30.015 65.7734 29.91C65.5214 29.802 65.3008 29.646 65.1119 29.442C64.9229 29.238 64.7729 28.989 64.6619 28.695C64.5539 28.398 64.4999 28.0605 64.4999 27.6825C64.4999 27.3435 64.5478 27.03 64.6439 26.742C64.7429 26.451 64.8869 26.2005 65.0759 25.9905C65.2649 25.7775 65.4989 25.611 65.7779 25.491C66.0569 25.371 66.3779 25.311 66.7409 25.311C67.0858 25.311 67.3874 25.3665 67.6454 25.4775C67.9064 25.5885 68.1404 25.7475 68.3474 25.9545L68.0549 26.3595Z" fill="#1987B6"/>
<path d="M71.9845 27.1605C71.9845 27.0165 71.9635 26.8815 71.9215 26.7555C71.8825 26.6265 71.8225 26.514 71.7415 26.418C71.6605 26.322 71.557 26.247 71.431 26.193C71.308 26.136 71.164 26.1075 70.999 26.1075C70.678 26.1075 70.4245 26.199 70.2385 26.382C70.0555 26.565 69.9385 26.8245 69.8875 27.1605H71.9845ZM69.865 27.831C69.883 28.068 69.925 28.2735 69.991 28.4475C70.057 28.6185 70.144 28.761 70.252 28.875C70.36 28.986 70.4875 29.07 70.6345 29.127C70.7845 29.181 70.9495 29.208 71.1295 29.208C71.3095 29.208 71.464 29.187 71.593 29.145C71.725 29.103 71.839 29.0565 71.935 29.0055C72.034 28.9545 72.1195 28.908 72.1915 28.866C72.2665 28.824 72.3385 28.803 72.4075 28.803C72.5005 28.803 72.5695 28.8375 72.6145 28.9065L72.934 29.3115C72.811 29.4555 72.673 29.577 72.5201 29.676C72.3671 29.772 72.2065 29.85 72.0385 29.91C71.8735 29.967 71.704 30.0075 71.53 30.0315C71.359 30.0555 71.1925 30.0675 71.0305 30.0675C70.7095 30.0675 70.411 30.015 70.135 29.91C69.859 29.802 69.619 29.6445 69.415 29.4375C69.211 29.2275 69.0505 28.9695 68.9335 28.6635C68.8165 28.3545 68.758 27.9975 68.758 27.5925C68.758 27.2775 68.809 26.982 68.911 26.706C69.013 26.427 69.1585 26.1855 69.3475 25.9815C69.5395 25.7745 69.772 25.611 70.045 25.491C70.321 25.371 70.6315 25.311 70.9765 25.311C71.2675 25.311 71.536 25.3575 71.782 25.4505C72.028 25.5435 72.2395 25.68 72.4165 25.86C72.5935 26.037 72.7315 26.256 72.8305 26.517C72.9325 26.775 72.9835 27.0705 72.9835 27.4035C72.9835 27.5715 72.9655 27.6855 72.9295 27.7455C72.8935 27.8025 72.8246 27.831 72.7225 27.831H69.865Z" fill="#1987B6"/>
<path d="M78.2966 26.7645C78.5186 26.7645 78.7121 26.7375 78.8771 26.6835C79.0421 26.6265 79.1786 26.547 79.2866 26.445C79.3976 26.34 79.4801 26.214 79.5341 26.067C79.5881 25.917 79.6151 25.7505 79.6151 25.5675C79.6151 25.3935 79.5881 25.236 79.5341 25.095C79.4801 24.954 79.3991 24.834 79.2911 24.735C79.1831 24.636 79.0466 24.561 78.8816 24.51C78.7166 24.456 78.5216 24.429 78.2966 24.429H77.3921V26.7645H78.2966ZM78.2966 23.493C78.7316 23.493 79.1081 23.544 79.4261 23.646C79.7441 23.748 80.0066 23.8905 80.2136 24.0735C80.4206 24.2565 80.5736 24.4755 80.6726 24.7305C80.7746 24.9855 80.8256 25.2645 80.8256 25.5675C80.8256 25.8825 80.7731 26.172 80.6681 26.436C80.5631 26.697 80.4056 26.922 80.1956 27.111C79.9856 27.3 79.7216 27.447 79.4036 27.552C79.0886 27.657 78.7196 27.7095 78.2966 27.7095H77.3921V30H76.1816V23.493H78.2966Z" fill="#1987B6"/>
<path d="M83.4105 25.311C83.7525 25.311 84.063 25.3665 84.342 25.4775C84.624 25.5885 84.864 25.746 85.062 25.95C85.263 26.154 85.4175 26.403 85.5255 26.697C85.6335 26.991 85.6875 27.3195 85.6875 27.6825C85.6875 28.0485 85.6335 28.3785 85.5255 28.6725C85.4175 28.9665 85.263 29.217 85.062 29.424C84.864 29.631 84.624 29.79 84.342 29.901C84.063 30.012 83.7525 30.0675 83.4105 30.0675C83.0655 30.0675 82.752 30.012 82.47 29.901C82.188 29.79 81.9465 29.631 81.7455 29.424C81.5475 29.217 81.393 28.9665 81.282 28.6725C81.174 28.3785 81.12 28.0485 81.12 27.6825C81.12 27.3195 81.174 26.991 81.282 26.697C81.393 26.403 81.5475 26.154 81.7455 25.95C81.9465 25.746 82.188 25.5885 82.47 25.4775C82.752 25.3665 83.0655 25.311 83.4105 25.311ZM83.4105 29.2125C83.7945 29.2125 84.078 29.0835 84.261 28.8255C84.447 28.5675 84.54 28.1895 84.54 27.6915C84.54 27.1935 84.447 26.814 84.261 26.553C84.078 26.292 83.7945 26.1615 83.4105 26.1615C83.0205 26.1615 82.731 26.2935 82.542 26.5575C82.356 26.8185 82.263 27.1965 82.263 27.6915C82.263 28.1865 82.356 28.5645 82.542 28.8255C82.731 29.0835 83.0205 29.2125 83.4105 29.2125Z" fill="#1987B6"/>
<path d="M87.5839 26.184C87.7279 25.908 87.8989 25.692 88.0969 25.536C88.2949 25.377 88.5289 25.2975 88.7989 25.2975C89.0119 25.2975 89.1829 25.344 89.3119 25.437L89.2399 26.2695C89.2249 26.3235 89.2024 26.3625 89.1724 26.3865C89.1454 26.4075 89.1079 26.418 89.0599 26.418C89.0149 26.418 88.9474 26.4105 88.8574 26.3955C88.7704 26.3805 88.6849 26.373 88.6009 26.373C88.4779 26.373 88.3684 26.391 88.2724 26.427C88.1764 26.463 88.0894 26.5155 88.0114 26.5845C87.9364 26.6505 87.8689 26.7315 87.8089 26.8275C87.7519 26.9235 87.6979 27.033 87.6469 27.156V30H86.5354V25.383H87.1879C87.3019 25.383 87.3814 25.404 87.4264 25.446C87.4714 25.485 87.5014 25.557 87.5164 25.662L87.5839 26.184Z" fill="#1987B6"/>
<path d="M91.4319 30.072C91.0299 30.072 90.7209 29.9595 90.5049 29.7345C90.2919 29.5065 90.1854 29.193 90.1854 28.794V26.2155H89.7129C89.6529 26.2155 89.6019 26.196 89.5599 26.157C89.5179 26.118 89.4969 26.0595 89.4969 25.9815V25.5405L90.2394 25.419L90.4734 24.159C90.4884 24.099 90.5169 24.0525 90.5589 24.0195C90.6009 23.9865 90.6549 23.97 90.7209 23.97H91.2969V25.4235H92.5299V26.2155H91.2969V28.7175C91.2969 28.8615 91.3314 28.974 91.4004 29.055C91.4724 29.136 91.5699 29.1765 91.6929 29.1765C91.7619 29.1765 91.8189 29.169 91.8639 29.154C91.9119 29.136 91.9524 29.118 91.9854 29.1C92.0214 29.082 92.0529 29.0655 92.0799 29.0505C92.1069 29.0325 92.1339 29.0235 92.1609 29.0235C92.1939 29.0235 92.2209 29.0325 92.2419 29.0505C92.2629 29.0655 92.2854 29.0895 92.3094 29.1225L92.6424 29.6625C92.4804 29.7975 92.2944 29.8995 92.0844 29.9685C91.8744 30.0375 91.6569 30.072 91.4319 30.072Z" fill="#1987B6"/>
<path d="M95.6805 28.029C95.3595 28.044 95.0895 28.0725 94.8705 28.1145C94.6515 28.1535 94.476 28.2045 94.344 28.2675C94.212 28.3305 94.1175 28.404 94.0605 28.488C94.0035 28.572 93.975 28.6635 93.975 28.7625C93.975 28.9575 94.032 29.097 94.146 29.181C94.263 29.265 94.4145 29.307 94.6005 29.307C94.8285 29.307 95.025 29.2665 95.19 29.1855C95.358 29.1015 95.5215 28.9755 95.6805 28.8075V28.029ZM93.1335 26.0265C93.6645 25.5405 94.3035 25.2975 95.0505 25.2975C95.3205 25.2975 95.562 25.3425 95.775 25.4325C95.988 25.5195 96.168 25.6425 96.315 25.8015C96.462 25.9575 96.573 26.145 96.648 26.364C96.726 26.583 96.765 26.823 96.765 27.084V30H96.261C96.156 30 96.075 29.985 96.018 29.955C95.961 29.922 95.916 29.8575 95.883 29.7615L95.784 29.4285C95.667 29.5335 95.553 29.6265 95.442 29.7075C95.331 29.7855 95.2155 29.8515 95.0955 29.9055C94.9755 29.9595 94.8465 30 94.7085 30.027C94.5735 30.057 94.4235 30.072 94.2585 30.072C94.0635 30.072 93.8835 30.0465 93.7185 29.9955C93.5535 29.9415 93.411 29.862 93.291 29.757C93.171 29.652 93.078 29.5215 93.012 29.3655C92.946 29.2095 92.913 29.028 92.913 28.821C92.913 28.704 92.9325 28.5885 92.9715 28.4745C93.0105 28.3575 93.0735 28.2465 93.1605 28.1415C93.2505 28.0365 93.366 27.9375 93.507 27.8445C93.648 27.7515 93.8205 27.6705 94.0245 27.6015C94.2315 27.5325 94.4715 27.477 94.7445 27.435C95.0175 27.39 95.3295 27.363 95.6805 27.354V27.084C95.6805 26.775 95.6145 26.547 95.4825 26.4C95.3505 26.25 95.16 26.175 94.911 26.175C94.731 26.175 94.581 26.196 94.461 26.238C94.344 26.28 94.2405 26.328 94.1505 26.382C94.0605 26.433 93.978 26.4795 93.903 26.5215C93.831 26.5635 93.75 26.5845 93.66 26.5845C93.582 26.5845 93.516 26.565 93.462 26.526C93.408 26.484 93.3645 26.436 93.3315 26.382L93.1335 26.0265Z" fill="#1987B6"/>
<path d="M98.9368 23.313V30H97.8253V23.313H98.9368Z" fill="#1987B6"/>
<defs>
<linearGradient id="paint0_linear_1895_3779" x1="-18.7342" y1="13.7753" x2="50.0146" y2="46.0621" gradientUnits="userSpaceOnUse">
<stop stop-color="#00B993"/>
<stop offset="1" stop-color="#0080BC"/>
</linearGradient>
</defs>
</svg>
